<?xml version="1.0" encoding="utf-8"?>
<!-- Generator: Adobe Illustrator 21.0.0, SVG Export Plug-In . SVG Version: 6.00 Build 0)  -->
<svg version="1.1" xmlns="http://www.w3.org/2000/svg" xmlns:xlink="http://www.w3.org/1999/xlink" x="0px" y="0px"
	 viewBox="0 0 360 144" style="enable-background:new 0 0 360 144;" xml:space="preserve">
<style type="text/css">
	.st0{fill:url(#SVGID_1_);}
	.st1{fill:#231F20;}
	.st2{fill:#FFFFFF;}
	.st3{fill:#231F20;stroke:#231F20;stroke-width:0.25;}
	.st4{fill:none;}
	.st5{fill:#39B54A;}
</style>
<g id="Layer_1">
	<linearGradient id="SVGID_1_" gradientUnits="userSpaceOnUse" x1="46.8625" y1="10.7427" x2="46.8625" y2="96.7119">
		<stop  offset="0" style="stop-color:#219246"/>
		<stop  offset="1" style="stop-color:#85C441"/>
	</linearGradient>
	<ellipse class="st0" cx="46.9" cy="53.7" rx="43" ry="43"/>
	<g>
		<path class="st1" d="M356.1,43.4c-0.5,0.5-1,0.7-1.7,0.7c-0.7,0-1.2-0.2-1.7-0.7c-0.5-0.5-0.7-1-0.7-1.7c0-0.7,0.2-1.2,0.7-1.7
			c0.5-0.5,1-0.7,1.7-0.7c0.7,0,1.2,0.2,1.7,0.7c0.5,0.5,0.7,1,0.7,1.7C356.8,42.4,356.5,42.9,356.1,43.4z M352.9,40.2
			c-0.4,0.4-0.6,0.9-0.6,1.5c0,0.6,0.2,1.1,0.6,1.5c0.4,0.4,0.9,0.6,1.5,0.6c0.6,0,1.1-0.2,1.5-0.6c0.4-0.4,0.6-0.9,0.6-1.5
			c0-0.6-0.2-1.1-0.6-1.5c-0.4-0.4-0.9-0.6-1.5-0.6C353.8,39.6,353.3,39.8,352.9,40.2z M354.3,40.4c0.3,0,0.6,0,0.7,0.1
			c0.3,0.1,0.4,0.3,0.4,0.7c0,0.2-0.1,0.4-0.3,0.5c-0.1,0.1-0.2,0.1-0.4,0.1c0.2,0,0.4,0.1,0.5,0.3c0.1,0.1,0.1,0.3,0.1,0.4v0.2
			c0,0.1,0,0.1,0,0.2c0,0.1,0,0.1,0,0.1l0,0H355c0,0,0,0,0,0c0,0,0,0,0,0l0-0.1v-0.2c0-0.3-0.1-0.5-0.3-0.6
			c-0.1-0.1-0.3-0.1-0.5-0.1h-0.4v1h-0.5v-2.6H354.3z M354.8,40.8c-0.1-0.1-0.3-0.1-0.6-0.1h-0.4v1h0.4c0.2,0,0.3,0,0.4-0.1
			c0.2-0.1,0.3-0.2,0.3-0.4C355,41,354.9,40.9,354.8,40.8z"/>
	</g>
	<path class="st2" d="M67.6,44.5l4-4l2,2l-1.9-13.4l-13.6-2l2,2l-4.1,4.1c-8.5-3.9-18.8-2.4-25.7,4.5c-6.9,6.9-8.4,17.2-4.5,25.7
		l-4.1,4.1l11.5,11.2l3.8-3.8c8.5,4,19,2.6,26-4.4C70.2,63.4,71.6,53,67.6,44.5z M34.8,42c4.5-4.5,10.9-5.8,16.7-4.1
		c1.8,0.5,3.5,1.3,5,2.4l-4.4,4.4c-1.8-1.1-3.9-1.6-6-1.5c-2.6,0.1-5.2,1.1-7.2,3.1c-2,2-3,4.6-3.1,7.2c-0.1,2.1,0.4,4.1,1.5,6
		L33,63.7c-1.1-1.6-1.9-3.3-2.4-5C28.9,52.9,30.2,46.5,34.8,42z M41.9,70.2c-1.8-0.5-3.4-1.4-5-2.5l4.4-4.4c1.8,1.1,3.9,1.6,6,1.5
		c2.6-0.1,5.2-1.1,7.2-3.1c2-2,3-4.6,3.1-7.2c0.1-2.1-0.4-4.1-1.5-6l4.4-4.4c1.1,1.5,1.9,3.2,2.5,5c1.8,5.8,0.5,12.4-4,17
		C54.3,70.7,47.7,72,41.9,70.2z"/>
	<g>
		<path class="st1" d="M139.9,27.6v5.1c-5.2-3.1-9.7-4.6-13.5-4.6c-3.6,0-6.7,1.1-9.1,3.3c-2.4,2.2-3.6,4.9-3.6,8.2
			c0,2.3,0.7,4.4,2.2,6.3c1.4,1.9,4.4,3.7,9,5.4c4.6,1.7,7.9,3.2,10,4.3c2.1,1.1,3.9,2.8,5.3,5c1.5,2.2,2.2,5,2.2,8.5
			c0,4.6-1.7,8.5-5.1,11.7c-3.4,3.2-7.5,4.8-12.4,4.8c-5,0-10.1-1.8-15.4-5.3v-5.5c5.8,4.3,10.9,6.4,15.2,6.4c3.6,0,6.6-1.2,9-3.5
			c2.5-2.3,3.7-5.2,3.7-8.5c0-2.6-0.8-4.9-2.3-6.9c-1.5-2.1-4.6-4-9.3-5.8c-4.7-1.8-8-3.2-10-4.3c-2-1.1-3.7-2.7-5.1-4.7
			c-1.4-2-2.1-4.6-2.1-7.8c0-4.4,1.7-8.2,5.1-11.3c3.4-3.1,7.5-4.7,12.2-4.7C130.6,23.8,135.3,25.1,139.9,27.6z"/>
		<path class="st1" d="M154.3,30.9v7.2h-4.3v-7.2H154.3z M154.3,45.1v39.7h-4.3V45.1H154.3z"/>
		<path class="st1" d="M167.9,45.1v7h0.2c3.2-5.2,7.4-7.8,12.6-7.8c6.1,0,10.3,3.2,12.8,9.5c3.7-6.4,8.3-9.5,13.8-9.5
			c4.1,0,7.4,1.5,10,4.4c2.5,2.9,3.8,6.8,3.8,11.7v24.4h-4.2V62.3c0-4.3-0.9-7.7-2.7-10.1c-1.8-2.5-4.4-3.7-7.6-3.7
			c-2.4,0-4.6,0.7-6.4,2.2c-1.8,1.5-3.7,3.8-5.6,7.1v27h-4.3V62.2c0-4.4-0.9-7.8-2.8-10.2c-1.9-2.4-4.4-3.6-7.6-3.6
			c-4.6,0-8.6,2.8-11.9,8.5v27.8h-4.2V45.1H167.9z"/>
		<path class="st1" d="M234.2,45.1v2.2c4-2,8-3,11.9-3c5.6,0,10.3,1.9,14,5.8c3.7,3.9,5.6,8.8,5.6,14.7c0,5.8-1.9,10.7-5.7,14.7
			c-3.8,4-8.5,6-14,6c-3.8,0-7.8-1-11.8-3v22.5h-4.2v-60H234.2z M234.2,51.4v27c3.6,2,7.2,3,11,3c4.7,0,8.6-1.5,11.5-4.5
			c2.9-3,4.4-6.9,4.4-11.8c0-4.8-1.5-8.8-4.7-12c-3.1-3.1-7-4.7-11.8-4.7C241.2,48.5,237.7,49.5,234.2,51.4z"/>
		<path class="st1" d="M277.7,24.6v60.2h-4.3V24.6H277.7z"/>
		<path class="st1" d="M321.1,63.5h-31.3c-0.1,0.7-0.1,1.4-0.1,2.1c0,4.4,1.6,8.2,4.7,11.3c3.2,3.1,6.9,4.6,11.2,4.6
			c5,0,9.9-2,14.7-5.9v4.8c-4.5,3.5-9.6,5.3-15.3,5.3c-5.7,0-10.4-2-14.2-6c-3.7-4-5.6-9-5.6-15.1c0-5.8,1.7-10.6,5.2-14.4
			c3.5-3.8,7.8-5.7,13-5.7c4.9,0,9.1,1.7,12.5,5.2C319.4,53,321.1,57.6,321.1,63.5z M290.4,60.1h25.7c-1.5-7.7-5.7-11.6-12.6-11.6
			c-3.2,0-6.1,1-8.4,3C292.7,53.6,291.1,56.4,290.4,60.1z"/>
		<path class="st1" d="M354.9,49.1l-2.5,4c-3.3-3-6-4.5-8-4.5c-4,0-8.2,3.8-12.7,11.4v24.9h-4.2V45.1h4.2v10.4h0.2
			c4.7-7.5,9.4-11.2,13.9-11.2C348.4,44.4,351.4,45.9,354.9,49.1z"/>
	</g>
	<line class="st3" x1="108.6" y1="115" x2="353.7" y2="115"/>
	<g>
		<path class="st1" d="M238.4,137.2c-0.2,0.1-0.6,0.2-1,0.2c-0.7,0-1.2-0.4-1.2-1.3c-0.8,0.9-1.8,1.3-3,1.3c-1.5,0-2.8-0.7-2.8-2.4
			c0-1.9,1.4-2.4,2.9-2.6c1.5-0.3,2.9-0.2,2.9-1.2c0-1.2-1-1.4-1.9-1.4c-1.2,0-2.1,0.4-2.1,1.6h-1.4c0.1-2.1,1.7-2.8,3.6-2.8
			c1.5,0,3.2,0.3,3.2,2.3v4.4c0,0.7,0,1,0.4,1c0.1,0,0.3,0,0.4-0.1V137.2z M236.1,132.8c-1.1,0.8-4.2,0-4.2,2.1
			c0,0.9,0.8,1.2,1.6,1.2c1.8,0,2.6-1.1,2.6-1.9V132.8z"/>
		<path class="st1" d="M239.7,128.7h1.3v1.3h0c0.6-1.1,1.5-1.5,2.8-1.5c2.2,0,2.9,1.3,2.9,3.1v5.6h-1.4v-5.8c0-1.1-0.7-1.7-1.7-1.7
			c-1.7,0-2.5,1.1-2.5,2.7v4.8h-1.4V128.7z"/>
		<path class="st1" d="M252.7,131.1v-5.6h1.6v5.6v6.1h-1.6V131.1z"/>
		<path class="st1" d="M256.5,125.5h4.3c1,0,2.4,0,3.1,0.4c0.8,0.5,1.4,1.3,1.4,2.5c0,1.2-0.6,2.2-1.7,2.6v0
			c1.4,0.3,2.2,1.4,2.2,2.8c0,1.7-1.3,3.4-3.6,3.4h-5.7V125.5z M258.1,130.5h3.1c1.8,0,2.5-0.6,2.5-1.9c0-1.6-1.1-1.9-2.5-1.9h-3.1
			V130.5z M258.1,135.9h3.9c1.4,0,2.2-0.8,2.2-2.1c0-1.5-1.2-2-2.5-2h-3.6V135.9z"/>
		<path class="st1" d="M267.5,125.5h2.1l3.7,9.9l3.7-9.9h2.1v11.7h-1.5v-9.8h0l-3.7,9.8h-1.3l-3.7-9.8h0v9.8h-1.5V125.5z"/>
		<path class="st1" d="M293.6,129c-0.3-1.7-1.6-2.5-3.3-2.5c-2.8,0-4,2.3-4,4.8c0,2.7,1.2,4.9,4,4.9c2,0,3.3-1.4,3.4-3.4h1.6
			c-0.3,2.9-2.1,4.7-5.1,4.7c-3.6,0-5.4-2.7-5.4-6.1c0-3.4,1.9-6.2,5.6-6.2c2.5,0,4.5,1.3,4.8,3.8H293.6z"/>
		<path class="st1" d="M300.6,128.5c2.7,0,4.1,2,4.1,4.5c0,2.5-1.4,4.4-4.1,4.4c-2.7,0-4.1-2-4.1-4.4
			C296.4,130.5,297.9,128.5,300.6,128.5z M300.6,136.2c1.5,0,2.6-1.2,2.6-3.2c0-2.1-1.2-3.2-2.6-3.2c-1.5,0-2.6,1.2-2.6,3.2
			C297.9,135,299.1,136.2,300.6,136.2z"/>
		<path class="st1" d="M306.1,128.7h1.3v1.2h0c0.6-1,1.5-1.4,2.7-1.4c1.1,0,2,0.4,2.3,1.4c0.6-0.9,1.6-1.4,2.7-1.4
			c1.7,0,2.8,0.7,2.8,2.5v6.2h-1.4v-5.6c0-1.1-0.3-1.9-1.6-1.9c-1.4,0-2.2,0.9-2.2,2.2v5.3h-1.4v-5.6c0-1.1-0.3-1.9-1.6-1.9
			c-1.6,0-2.3,1.5-2.3,2.2v5.3h-1.4V128.7z"/>
		<path class="st1" d="M319.8,128.7h1.4v1.2h0c0.5-0.9,1.5-1.3,2.7-1.3c2.6,0,3.9,2.1,3.9,4.5c0,2.4-1.3,4.4-3.9,4.4
			c-0.9,0-2.1-0.3-2.7-1.3h0v4.4h-1.4V128.7z M323.8,129.8c-1.9,0-2.6,1.6-2.6,3.2c0,1.7,0.8,3.2,2.7,3.2c1.9,0,2.5-1.6,2.5-3.3
			C326.4,131.3,325.6,129.8,323.8,129.8z"/>
		<path class="st1" d="M336.9,137.2c-0.2,0.1-0.6,0.2-1,0.2c-0.7,0-1.2-0.4-1.2-1.3c-0.8,0.9-1.8,1.3-3,1.3c-1.5,0-2.8-0.7-2.8-2.4
			c0-1.9,1.4-2.4,2.9-2.6c1.5-0.3,2.9-0.2,2.9-1.2c0-1.2-1-1.4-1.9-1.4c-1.2,0-2.1,0.4-2.1,1.6h-1.4c0.1-2.1,1.7-2.8,3.6-2.8
			c1.5,0,3.2,0.3,3.2,2.3v4.4c0,0.7,0,1,0.4,1c0.1,0,0.3,0,0.4-0.1V137.2z M334.6,132.8c-1.1,0.8-4.2,0-4.2,2.1
			c0,0.9,0.8,1.2,1.6,1.2c1.8,0,2.6-1.1,2.6-1.9V132.8z"/>
		<path class="st1" d="M338.2,128.7h1.3v1.3h0c0.6-1.1,1.5-1.5,2.8-1.5c2.2,0,2.9,1.3,2.9,3.1v5.6h-1.4v-5.8c0-1.1-0.7-1.7-1.7-1.7
			c-1.7,0-2.5,1.1-2.5,2.7v4.8h-1.4V128.7z"/>
		<path class="st1" d="M350,138.4c-0.7,1.6-1.2,2.3-2.5,2.3c-0.3,0-0.7,0-1-0.1v-1.3c0.3,0.1,0.5,0.2,0.8,0.2c0.6,0,0.9-0.3,1.2-0.8
			l0.6-1.4l-3.4-8.5h1.6l2.5,7h0l2.4-7h1.5L350,138.4z"/>
	</g>
	<g>
		<rect x="46.9" y="10.7" class="st4" width="249.9" height="19.5"/>
		<rect x="58.5" y="30.9" class="st4" width="249.9" height="19.5"/>
	</g>
	<g>
		<rect x="53.9" y="51.1" class="st4" width="249.9" height="19.5"/>
		<rect x="65.5" y="71.3" class="st4" width="249.9" height="19.5"/>
	</g>
	<g>
		<path class="st5" d="M249.9,104.3c-0.7,0-1.3-0.1-1.8-0.4c-0.6-0.2-1.1-0.6-1.5-1c-0.4-0.4-0.7-0.9-1-1.5
			c-0.2-0.6-0.4-1.2-0.4-1.8v0c0-0.7,0.1-1.3,0.3-1.8c0.2-0.6,0.6-1.1,1-1.5c0.4-0.4,0.9-0.8,1.5-1s1.2-0.4,1.9-0.4
			c0.4,0,0.8,0,1.1,0.1c0.3,0.1,0.7,0.2,0.9,0.3c0.3,0.1,0.5,0.3,0.8,0.4c0.2,0.2,0.5,0.4,0.7,0.6l-1,1.2c-0.4-0.3-0.8-0.6-1.2-0.8
			s-0.9-0.3-1.4-0.3c-0.4,0-0.8,0.1-1.2,0.3c-0.4,0.2-0.7,0.4-0.9,0.7c-0.3,0.3-0.5,0.6-0.6,1c-0.2,0.4-0.2,0.8-0.2,1.2v0
			c0,0.4,0.1,0.9,0.2,1.3c0.2,0.4,0.4,0.7,0.6,1c0.3,0.3,0.6,0.5,0.9,0.7c0.4,0.2,0.8,0.3,1.2,0.3c0.3,0,0.5,0,0.8-0.1
			c0.2-0.1,0.5-0.1,0.7-0.2c0.2-0.1,0.4-0.2,0.6-0.4c0.2-0.1,0.4-0.3,0.6-0.5l1,1c-0.2,0.2-0.5,0.5-0.7,0.7
			c-0.3,0.2-0.5,0.4-0.8,0.5c-0.3,0.1-0.6,0.3-1,0.3C250.7,104.2,250.3,104.3,249.9,104.3z"/>
		<path class="st5" d="M259.4,104.3c-0.7,0-1.3-0.1-1.9-0.4c-0.6-0.2-1.1-0.6-1.5-1c-0.4-0.4-0.7-0.9-1-1.5
			c-0.2-0.6-0.4-1.2-0.4-1.8v0c0-0.6,0.1-1.2,0.4-1.8c0.2-0.6,0.6-1.1,1-1.5c0.4-0.4,0.9-0.8,1.5-1c0.6-0.3,1.2-0.4,1.9-0.4
			c0.7,0,1.3,0.1,1.9,0.4c0.6,0.2,1.1,0.6,1.5,1c0.4,0.4,0.7,0.9,1,1.5c0.2,0.6,0.4,1.2,0.4,1.8v0c0,0.6-0.1,1.2-0.4,1.8
			c-0.2,0.6-0.6,1.1-1,1.5c-0.4,0.4-0.9,0.8-1.5,1C260.7,104.1,260.1,104.3,259.4,104.3z M259.4,102.8c0.5,0,0.9-0.1,1.2-0.3
			c0.4-0.2,0.7-0.4,1-0.7c0.3-0.3,0.5-0.6,0.6-1c0.2-0.4,0.2-0.8,0.2-1.2v0c0-0.4-0.1-0.9-0.2-1.3c-0.2-0.4-0.4-0.7-0.6-1
			c-0.3-0.3-0.6-0.5-1-0.7c-0.4-0.2-0.8-0.3-1.2-0.3c-0.5,0-0.9,0.1-1.2,0.3c-0.4,0.2-0.7,0.4-1,0.7c-0.3,0.3-0.5,0.6-0.6,1
			c-0.2,0.4-0.2,0.8-0.2,1.2v0c0,0.4,0.1,0.9,0.2,1.3c0.2,0.4,0.4,0.7,0.6,1c0.3,0.3,0.6,0.5,1,0.7
			C258.5,102.7,258.9,102.8,259.4,102.8z"/>
		<path class="st5" d="M266.1,95h1.5l4.9,6.3V95h1.6v9.1h-1.3l-5-6.5v6.5h-1.6V95z"/>
		<path class="st5" d="M279.5,104.2c-0.7,0-1.4-0.1-2-0.4c-0.6-0.2-1.2-0.6-1.8-1.1l1-1.1c0.4,0.4,0.9,0.7,1.3,0.9
			c0.5,0.2,1,0.3,1.5,0.3c0.5,0,0.9-0.1,1.2-0.3c0.3-0.2,0.4-0.5,0.4-0.8v0c0-0.2,0-0.3-0.1-0.4c-0.1-0.1-0.2-0.2-0.3-0.4
			s-0.4-0.2-0.6-0.3c-0.3-0.1-0.6-0.2-1-0.3c-0.5-0.1-0.9-0.3-1.3-0.4c-0.4-0.1-0.7-0.3-0.9-0.5c-0.3-0.2-0.5-0.5-0.6-0.7
			c-0.1-0.3-0.2-0.6-0.2-1.1v0c0-0.4,0.1-0.7,0.2-1.1c0.2-0.3,0.4-0.6,0.6-0.8c0.3-0.2,0.6-0.4,1-0.5c0.4-0.1,0.8-0.2,1.2-0.2
			c0.7,0,1.3,0.1,1.8,0.3c0.5,0.2,1,0.5,1.5,0.9l-0.9,1.2c-0.4-0.3-0.8-0.5-1.2-0.7c-0.4-0.2-0.8-0.2-1.2-0.2
			c-0.5,0-0.8,0.1-1.1,0.3c-0.3,0.2-0.4,0.5-0.4,0.8v0c0,0.2,0,0.3,0.1,0.5c0.1,0.1,0.2,0.3,0.3,0.4c0.2,0.1,0.4,0.2,0.7,0.3
			c0.3,0.1,0.6,0.2,1.1,0.3c0.5,0.1,0.9,0.2,1.3,0.4c0.4,0.2,0.7,0.3,0.9,0.5c0.2,0.2,0.4,0.5,0.6,0.7c0.1,0.3,0.2,0.6,0.2,1v0
			c0,0.4-0.1,0.8-0.2,1.1c-0.2,0.3-0.4,0.6-0.7,0.9c-0.3,0.2-0.6,0.4-1,0.5C280.5,104.2,280,104.2,279.5,104.2z"/>
		<path class="st5" d="M288.4,104.3c-0.6,0-1.1-0.1-1.6-0.3c-0.5-0.2-0.9-0.4-1.2-0.8c-0.3-0.3-0.6-0.8-0.8-1.3
			c-0.2-0.5-0.3-1.1-0.3-1.7V95h1.6v5.2c0,0.8,0.2,1.5,0.6,1.9c0.4,0.4,1,0.7,1.7,0.7c0.7,0,1.3-0.2,1.7-0.6
			c0.4-0.4,0.6-1.1,0.6-1.9V95h1.6v5.2c0,0.7-0.1,1.3-0.3,1.8c-0.2,0.5-0.4,0.9-0.8,1.3c-0.3,0.3-0.7,0.6-1.2,0.8
			C289.5,104.2,289,104.3,288.4,104.3z"/>
		<path class="st5" d="M294.5,95h1.6v7.6h4.8v1.5h-6.4V95z"/>
		<path class="st5" d="M303.5,96.5h-2.9V95h7.4v1.5h-2.9v7.6h-1.6V96.5z"/>
		<path class="st5" d="M309.8,95h1.6v9.1h-1.6V95z"/>
		<path class="st5" d="M313.8,95h1.5l4.9,6.3V95h1.6v9.1h-1.3l-5-6.5v6.5h-1.6V95z"/>
		<path class="st5" d="M328.4,104.3c-0.7,0-1.4-0.1-1.9-0.4c-0.6-0.2-1.1-0.6-1.5-1c-0.4-0.4-0.7-0.9-1-1.5
			c-0.2-0.6-0.3-1.2-0.3-1.8v0c0-0.6,0.1-1.2,0.3-1.8c0.2-0.6,0.6-1.1,1-1.5c0.4-0.4,0.9-0.8,1.5-1c0.6-0.3,1.2-0.4,1.9-0.4
			c0.4,0,0.8,0,1.1,0.1c0.3,0.1,0.6,0.1,0.9,0.2c0.3,0.1,0.5,0.2,0.8,0.4c0.2,0.2,0.5,0.3,0.7,0.5l-1,1.2c-0.2-0.1-0.4-0.3-0.5-0.4
			c-0.2-0.1-0.4-0.2-0.6-0.3c-0.2-0.1-0.4-0.2-0.7-0.2c-0.2,0-0.5-0.1-0.8-0.1c-0.4,0-0.8,0.1-1.2,0.3c-0.4,0.2-0.7,0.4-0.9,0.7
			c-0.3,0.3-0.5,0.6-0.6,1c-0.2,0.4-0.2,0.8-0.2,1.2v0c0,0.5,0.1,0.9,0.2,1.3c0.1,0.4,0.4,0.7,0.6,1c0.3,0.3,0.6,0.5,1,0.7
			c0.4,0.2,0.8,0.2,1.3,0.2c0.4,0,0.8-0.1,1.2-0.2c0.4-0.1,0.7-0.3,1-0.5v-1.7h-2.3V99h3.9v3.8c-0.2,0.2-0.5,0.4-0.7,0.5
			c-0.3,0.2-0.6,0.3-0.9,0.5c-0.3,0.1-0.7,0.2-1,0.3C329.2,104.2,328.8,104.3,328.4,104.3z"/>
	</g>
</g>
<g id="Layer_2">
</g>
</svg>
